<?xml version="1.0" standalone="no"?>
<!DOCTYPE svg PUBLIC "-//W3C//DTD SVG 20010904//EN"
 "http://www.w3.org/TR/2001/REC-SVG-20010904/DTD/svg10.dtd">
<svg version="1.0" xmlns="http://www.w3.org/2000/svg"
 width="500.000000pt" height="500.000000pt" viewBox="0 0 500.000000 500.000000"
 preserveAspectRatio="xMidYMid meet">

<g transform="translate(0.000000,500.000000) scale(0.100000,-0.100000)"
fill="#f8c840" stroke="none">
<path d="M0 2500 l0 -2500 2500 0 2500 0 0 2500 0 2500 -2500 0 -2500 0 0
-2500z m2653 2038 c24 -40 160 -262 302 -493 418 -682 765 -1248 973 -1589
l194 -319 -89 -88 c-50 -49 -93 -86 -96 -83 -8 8 144 164 154 159 4 -3 9 2 12
9 3 8 3 16 -1 18 -10 4 -65 89 -167 258 -48 80 -109 179 -135 220 -43 68 -153
247 -592 960 -80 129 -189 307 -243 395 -136 220 -217 353 -287 467 -32 54
-63 100 -67 103 -5 2 -57 -75 -117 -173 -59 -97 -160 -260 -224 -362 -64 -102
-140 -224 -169 -272 -30 -49 -57 -88 -62 -88 -10 0 556 947 568 950 1 0 21
-33 46 -72z m162 -538 c109 -190 276 -480 370 -645 l172 -300 -740 -3 c-407
-1 -742 0 -744 2 -2 2 22 48 53 102 67 117 259 451 502 874 96 168 177 309
179 313 6 11 -15 47 208 -343z m-811 -405 c-16 -25 -33 -45 -38 -45 -5 0 -4 6
1 13 5 6 20 29 33 49 35 53 38 38 4 -17z m-49 -83 c-6 -4 -24 -29 -39 -57 -49
-86 -81 -134 -88 -135 -4 0 20 45 53 100 33 55 66 100 72 100 8 0 9 -3 2 -8z
m-175 -277 c-22 -36 -40 -68 -40 -71 0 -3 -10 -20 -22 -37 -13 -18 -30 -44
-38 -59 -41 -74 -110 -190 -308 -512 -118 -193 -223 -365 -233 -381 l-18 -31
744 -744 c409 -409 746 -742 749 -740 3 3 237 236 520 519 284 283 519 512
523 508 3 -4 -232 -246 -523 -537 l-529 -530 -758 758 -759 759 202 329 c216
351 306 495 348 558 35 52 50 78 58 99 3 9 10 17 15 17 5 0 9 4 9 10 0 11 88
150 95 150 3 0 -13 -29 -35 -65z m260 -435 l0 -80 107 0 107 0 48 -47 c47 -46
48 -49 48 -107 0 -58 -2 -62 -47 -108 -34 -35 -55 -48 -75 -48 l-28 0 0 90 0
90 -107 0 -106 0 -44 45 c-40 43 -43 49 -43 102 0 54 3 60 42 100 30 30 50 43
70 43 l28 0 0 -80z m262 43 c26 -25 38 -46 38 -65 0 -28 0 -28 -70 -28 -68 0
-70 1 -70 25 0 24 -2 25 -65 25 l-65 0 0 40 0 40 97 0 97 0 38 -37z m524 29
c5 -4 23 -56 39 -117 15 -60 31 -114 35 -118 4 -4 15 31 25 78 10 47 20 83 24
80 3 -4 18 -50 33 -103 l27 -97 -26 -93 -26 -93 -70 3 -69 3 -64 210 c-34 116
-66 220 -69 233 -5 21 -3 22 62 22 38 0 73 -4 79 -8z m293 -30 c5 -21 31 -118
56 -217 25 -99 49 -188 51 -197 5 -16 -3 -18 -68 -18 l-74 0 -62 228 c-34 125
-62 230 -62 234 0 4 34 7 75 7 l75 -1 9 -36z m251 31 c0 -14 -113 -408 -119
-415 -4 -4 -20 44 -36 108 l-28 115 18 77 c30 128 25 122 100 122 36 0 65 -3
65 -7z m-788 -166 c12 -19 10 -34 -8 -51 -19 -20 -41 -22 -26 -3 14 17 5 54
-16 62 -21 8 -34 -8 -25 -31 12 -30 77 -124 86 -124 4 0 13 12 19 26 10 21 9
27 -3 35 -10 6 -2 9 26 9 31 -1 36 -3 23 -10 -9 -6 -27 -26 -39 -46 -22 -36
-22 -37 -3 -51 10 -8 27 -12 37 -9 18 4 18 4 1 -15 -19 -21 -64 -25 -82 -7 -9
9 -18 9 -37 0 -45 -21 -93 -15 -111 13 -21 33 -12 68 26 95 26 18 28 24 19 47
-12 33 -3 62 24 73 27 12 78 4 89 -13z m-530 -184 c3 -27 5 -28 58 -28 l55 0
3 -42 3 -43 -98 0 -99 0 -37 44 c-21 26 -37 56 -37 70 0 26 1 26 74 26 74 0
75 0 78 -27z m-460 -450 c3 -33 7 -38 31 -41 15 -2 27 -9 27 -17 0 -8 -12 -15
-27 -17 -24 -3 -28 -8 -31 -40 -3 -35 -6 -38 -33 -38 l-29 0 0 95 0 95 29 0
c27 0 30 -3 33 -37z m108 12 c0 -27 -8 -29 -59 -19 -21 5 -31 12 -31 25 0 16
8 19 45 19 41 0 45 -2 45 -25z m156 -65 c29 -47 53 -88 53 -92 1 -5 -12 -8
-28 -8 -27 0 -36 10 -85 90 -31 49 -56 92 -56 96 0 3 14 4 32 2 28 -3 38 -13
84 -88z m64 10 c0 -44 -2 -80 -5 -80 -16 0 -55 85 -55 120 0 38 2 40 30 40
l30 0 0 -80z m180 60 c0 -18 -7 -20 -80 -20 -73 0 -80 2 -80 20 0 18 7 20 80
20 73 0 80 -2 80 -20z m92 -17 c3 -33 7 -38 31 -41 38 -5 36 -32 -3 -32 -28 0
-30 -2 -30 -40 0 -38 -2 -40 -30 -40 l-30 0 0 95 0 95 29 0 c27 0 30 -3 33
-37z m108 12 c0 -20 -5 -25 -24 -25 -37 0 -76 18 -76 35 0 11 12 15 50 15 47
0 50 -2 50 -25z m90 -70 l0 -95 -30 0 -30 0 0 95 0 95 30 0 30 0 0 -95z m102
78 c21 -19 24 -75 6 -91 -7 -5 -24 -12 -38 -15 -25 -4 -25 -4 2 -6 20 -1 32
-10 43 -31 l16 -30 -35 0 c-28 0 -36 5 -46 30 -7 17 -16 30 -21 30 -5 0 -9 7
-9 15 0 8 9 15 20 15 16 0 20 7 20 30 0 23 -4 30 -20 30 -13 0 -20 7 -20 20 0
16 7 20 32 20 17 0 40 -7 50 -17z m113 -78 l0 -90 -32 -3 -31 -3 3 88 c1 48 3
92 4 96 1 5 13 7 29 5 l27 -3 0 -90z m97 78 c23 -20 24 -80 1 -105 -9 -10 -30
-18 -50 -18 -26 0 -33 4 -33 20 0 13 7 20 20 20 16 0 20 7 20 30 0 23 -4 30
-20 30 -13 0 -20 7 -20 20 0 16 7 20 32 20 17 0 40 -7 50 -17z m118 -79 l0
-95 -32 3 -33 3 2 70 c1 39 2 80 2 93 1 18 7 22 31 22 l30 0 0 -96z m97 74
c25 -23 31 -69 11 -85 -7 -6 -32 -13 -55 -17 -34 -5 -43 -3 -43 8 0 8 10 16
23 18 16 2 23 11 25 31 3 23 0 27 -22 27 -19 0 -26 5 -26 20 0 28 56 27 87 -2z
m143 3 c0 -11 -4 -22 -8 -25 -12 -7 -8 -87 6 -112 15 -28 7 -34 -48 -34 -39 0
-46 3 -47 20 -1 11 2 20 8 20 5 0 9 25 9 55 0 30 -4 55 -8 55 -4 0 -8 9 -9 20
-2 18 4 20 48 20 42 0 49 -3 49 -19z m90 -16 c0 -35 0 -35 45 -35 79 0 110
-53 60 -100 -29 -27 -37 -23 -39 19 -1 29 -3 31 -42 31 -64 0 -97 50 -63 94
28 35 39 33 39 -9z m102 18 c10 -9 18 -20 18 -25 0 -11 -48 -10 -55 2 -3 6
-17 10 -31 10 -15 0 -24 6 -24 15 0 21 68 20 92 -2z m118 -23 c0 -38 2 -40 30
-40 20 0 30 -5 30 -15 0 -10 -10 -15 -30 -15 -28 0 -30 -2 -30 -40 0 -38 -2
-40 -30 -40 l-30 0 0 95 0 95 30 0 c28 0 30 -2 30 -40z m110 15 c0 -27 -12
-30 -69 -19 -21 5 -31 12 -31 25 0 16 8 19 50 19 47 0 50 -2 50 -25z m82 5
c-8 -33 9 -50 50 -50 49 0 78 -22 78 -58 0 -28 -26 -62 -47 -62 -8 0 -13 12
-13 35 0 34 -1 35 -42 35 -24 0 -49 7 -60 17 -23 20 -23 61 -1 85 18 20 40 19
35 -2z m106 8 c20 -20 14 -38 -13 -38 -14 0 -25 5 -25 10 0 6 -11 10 -25 10
-16 0 -25 6 -25 15 0 19 70 21 88 3z m-1903 -58 c16 -26 25 -54 25 -80 0 -39
-2 -41 -27 -38 -26 3 -27 4 -27 80 -1 43 0 78 1 78 2 0 14 -18 28 -40z m285
-50 l0 -70 -30 0 -30 0 0 70 0 70 30 0 30 0 0 -70z m-350 -40 c0 -29 -2 -30
-45 -30 -36 0 -45 3 -45 18 0 19 33 39 68 41 18 1 22 -4 22 -29z m600 0 c0
-29 -1 -30 -50 -30 -39 0 -50 3 -50 16 0 9 9 18 20 21 11 3 20 9 20 14 0 5 14
9 30 9 27 0 30 -3 30 -30z m624 5 c22 -33 21 -35 -14 -35 -28 0 -50 22 -50 49
0 22 48 11 64 -14z m232 10 c4 -8 15 -15 25 -15 10 0 19 -7 19 -15 0 -11 -11
-15 -39 -15 -30 0 -42 5 -54 24 -9 13 -13 26 -10 30 12 12 54 6 59 -9z m322
-17 c3 -27 2 -28 -47 -28 -44 0 -51 3 -51 20 0 13 7 20 20 20 11 0 20 5 20 11
0 6 12 9 28 7 21 -2 28 -9 30 -30z m92 17 c0 -9 9 -15 25 -15 16 0 25 -6 25
-15 0 -21 -68 -20 -92 2 -27 25 -22 43 12 43 20 0 30 -5 30 -15z m360 -17 c0
-6 -3 -8 -6 -5 -4 3 -15 -5 -26 -18 -11 -14 -24 -25 -29 -25 -5 0 3 14 18 30
28 31 43 38 43 18z m-130 -128 c-6 -11 -13 -20 -16 -20 -2 0 0 9 6 20 6 11 13
20 16 20 2 0 0 -9 -6 -20z m-60 -60 c0 -5 -4 -10 -10 -10 -5 0 -10 5 -10 10 0
6 5 10 10 10 6 0 10 -4 10 -10z m-421 -187 c-74 -76 -264 -271 -423 -433
l-288 -294 -106 109 c-58 61 -216 223 -351 360 -136 138 -277 283 -316 323
l-69 72 844 0 844 0 -135 -137z m371 131 c0 -8 -19 -13 -24 -6 -3 5 1 9 9 9 8
0 15 -2 15 -3z"/>
<path d="M2472 2598 c-18 -18 -15 -44 11 -74 18 -20 28 -25 45 -20 21 7 22 9
6 35 -35 59 -49 72 -62 59z"/>
</g>
</svg>
